<svg width="90" height="91" fill="none" xmlns="http://www.w3.org/2000/svg"><path d="M63.914 55.29a1.956 1.956 0 00-2.763.152c-4.081 4.56-9.966 7.175-16.151 7.175-6.183 0-12.07-2.614-16.151-7.175a1.956 1.956 0 10-2.915 2.61C30.757 63.44 37.706 66.53 45 66.53c7.296 0 14.245-3.092 19.066-8.478a1.958 1.958 0 00-.152-2.763z" fill="#fff"/><path d="M45 .007c-24.813 0-45 20.187-45 45 0 24.812 20.187 45 45 45s45-20.188 45-45c0-24.813-20.187-45-45-45zm0 86.087c-22.657 0-41.087-18.43-41.087-41.087C3.913 22.35 22.343 3.92 45 3.92c22.656 0 41.087 18.43 41.087 41.087 0 22.656-18.43 41.087-41.087 41.087z" fill="#fff"/><path d="M60.652 31.311c-5.394 0-9.782 4.389-9.782 9.783a1.957 1.957 0 003.913 0 5.877 5.877 0 015.87-5.87 5.877 5.877 0 015.869 5.87 1.957 1.957 0 003.913 0c0-5.394-4.389-9.783-9.783-9.783zm-25.435 9.783a1.957 1.957 0 003.913 0c0-5.394-4.388-9.783-9.782-9.783s-9.783 4.389-9.783 9.783a1.957 1.957 0 003.913 0 5.877 5.877 0 015.87-5.87 5.877 5.877 0 015.87 5.87z" fill="#fff"/></svg>