<svg width="102" height="98" fill="none" xmlns="http://www.w3.org/2000/svg"><path d="M97.489 50.336L98.686 49l-1.197-1.335-9.596-10.7 1.503-14.328.188-1.79-1.761-.375-14.024-2.982-7.155-12.484-.9-1.572-1.654.742L51 10.052 37.91 4.176l-1.653-.742-.901 1.572L28.2 17.49l-14.024 2.982-1.76.374.187 1.79 1.503 14.328L4.51 47.665 3.314 49l1.197 1.336 9.596 10.7-1.503 14.328-.188 1.79 1.761.375 14.024 2.982 7.154 12.484.902 1.572 1.653-.742L51 87.949l13.09 5.876 1.653.742.901-1.572L73.8 80.51l14.024-2.982 1.76-.375-.187-1.79-1.503-14.328 9.596-10.7zM35.314 47.84l10.328 10.373 1.5 1.507 1.412-1.59 17.533-19.729.96.861-19.853 22.341-12.791-12.847.91-.916z" stroke="#fff" stroke-width="4"/></svg>