<svg width="81" height="58" fill="none" xmlns="http://www.w3.org/2000/svg"><mask id="a" fill="#fff"><path fill-rule="evenodd" clip-rule="evenodd" d="M23.71 9.56l.002-.632c.005-2.308.943-4.528 2.644-6.252C28.056.956 30.25.006 32.53.001c1.445-.003 3.633 0 6.166.004l4.319.005a9.478 9.478 0 016.779 2.846l28.214 28.562c3.99 4.039 3.99 10.611 0 14.65l-8.79 8.898A10.105 10.105 0 0161.982 58a10.106 10.106 0 01-7.236-3.034L26.532 26.404a9.715 9.715 0 01-2.811-6.862 7284.62 7284.62 0 00-.006-4.373v-.518l-.004-2.814.004-1.241-.004-1.036zm10.337 3.522a3.533 3.533 0 10-3.534-3.532 3.533 3.533 0 003.534 3.532z"/></mask><path d="M23.712 8.928l-1-.002 1 .002zm-.001.632l-1 .004v-.006l1 .002zm2.645-6.884l-.712-.702.712.702zM32.53.001l-.002-1 .002 1zm6.166.004l.001-1-.002 1zm4.319.005l-.001 1v-1zm6.779 2.846l.711-.702-.711.702zm28.214 28.562l.711-.703-.711.703zm0 14.65l.711.703-.711-.703zm-8.79 8.898l.712.703-.712-.703zm-14.472 0l-.712.703.712-.703zM26.532 26.404l-.712.703.712-.703zm-2.811-6.862l1-.001h-1zm-.006-4.373l-1 .002 1-.002zm0-.518l1-.002-1 .002zm-.004-2.814h-1v-.004l1 .004zm.004-1.241l1-.005v.008l-1-.003zm.997-1.666a325.229 325.229 0 00-.001.56v.071l-1-.001-1-.002v-.631l2 .003zm2.355-5.551c-1.526 1.547-2.35 3.519-2.355 5.551l-2-.004c.006-2.584 1.057-5.052 2.932-6.952l1.424 1.405zM32.532 1c-1.996.005-3.939.836-5.465 2.379l-1.422-1.407C27.52.077 29.964-.993 32.528-.999l.004 2zm6.162.004C36.161 1 33.975.997 32.532 1l-.004-2c1.448-.003 3.637 0 6.169.004l-.003 2zm4.32.005c-1.455 0-2.927-.003-4.32-.005l.003-2 4.318.005-.001 2zm6.068 2.55a8.478 8.478 0 00-6.068-2.55l.001-2a10.478 10.478 0 017.49 3.144l-1.423 1.405zm28.214 28.56L49.082 3.56l1.423-1.406 28.214 28.56-1.423 1.406zm0 13.246c3.605-3.65 3.605-9.596 0-13.246l1.423-1.405c4.375 4.429 4.375 11.627 0 16.056l-1.423-1.405zm-8.789 8.897l8.79-8.897 1.422 1.405-8.79 8.898-1.422-1.406zM61.982 57c2.464 0 4.779-.97 6.525-2.737l1.423 1.406A11.105 11.105 0 0161.982 59v-2zm-6.525-2.737A9.106 9.106 0 0061.982 57v2a11.105 11.105 0 01-7.947-3.331l1.422-1.406zM27.243 25.702l28.214 28.561-1.423 1.406-28.213-28.562 1.422-1.405zm-2.522-6.161a8.715 8.715 0 002.522 6.16l-1.423 1.406a10.715 10.715 0 01-3.1-7.564l2-.002zm-.006-4.373l.006 4.373-2 .002-.006-4.372 2-.003zm0-.518v.518l-2 .003v-.519l2-.002zm-.004-2.814c0 .86.002 1.806.004 2.813l-2 .003-.004-2.814 2-.002zm.004-1.237l-.004 1.241-2-.007.004-1.24 2 .006zm-.004-1.044l.004 1.036-2 .009-.004-1.036 2-.009zm13.87-.005a4.533 4.533 0 01-4.534 4.532v-2c1.4 0 2.534-1.134 2.534-2.532h2zm-4.534-4.53a4.533 4.533 0 014.534 4.531h-2a2.533 2.533 0 00-2.534-2.531v-2zm-4.534 4.53a4.533 4.533 0 014.534-4.531v2a2.533 2.533 0 00-2.534 2.531h-2zm4.534 4.532a4.533 4.533 0 01-4.534-4.532h2a2.533 2.533 0 002.534 2.532v2z" fill="url(#paint0_linear)" mask="url(#a)"/><path d="M54.68 28.049l-.425-.431.185-.577a5.495 5.495 0 00-1.308-5.529 5.314 5.314 0 00-7.575 0c-2.096 2.122-2.096 5.581 0 7.703h0c1.42 1.439 3.474 1.906 5.39 1.277l.584-.192.434.435 1.362 1.36h1.881v1.623l.407-.048 1.018-.12.095 1.02.082.892.87.083 1.015.096-.116 1.013-.08.695.556.562h2.671v-2.73l-7.045-7.132zm1.782 7.38h0zm1.9 1.78h-.001 0zM45.77 25.652h0a2.773 2.773 0 010-3.889 2.721 2.721 0 013.877 0 2.773 2.773 0 010 3.89 2.722 2.722 0 01-3.877 0z" fill="url(#paint1_linear)" stroke="url(#paint2_linear)" stroke-width="2"/><path d="M39.192 52.5c-10.603 4.036-28.273 3.53-35.846-14.63-5.259-12.614 5.01-35.899 28.738-29.34" stroke="#FF6756" stroke-width="2.5" stroke-linecap="round"/><defs><linearGradient id="paint0_linear" x1="107.781" y1="29" x2="10.32" y2="29" gradientUnits="userSpaceOnUse"><stop stop-color="#FE465C"/><stop offset=".672" stop-color="#FF6C54"/></linearGradient><linearGradient id="paint1_linear" x1="71.955" y1="28.919" x2="38.371" y2="28.919" gradientUnits="userSpaceOnUse"><stop stop-color="#FE465C"/><stop offset=".672" stop-color="#FF6C54"/></linearGradient><linearGradient id="paint2_linear" x1="71.955" y1="28.919" x2="38.371" y2="28.919" gradientUnits="userSpaceOnUse"><stop stop-color="#FE465C"/><stop offset=".672" stop-color="#FF6C54"/></linearGradient></defs></svg>