<svg width="66" height="66" fill="none" xmlns="http://www.w3.org/2000/svg"><path d="M50.574 29.142c0-2.09-1.7-3.79-3.79-3.79h-6.963c1.692-1.901 2.797-4.067 3.01-6.01a4.178 4.178 0 00-1.005-3.231 3.633 3.633 0 00-2.71-1.244h-.036a3.77 3.77 0 00-2.672 1.097 3.742 3.742 0 00-1.116 2.66c-.036.22-.424.98-1.374 1.884-.777.74-2.12 1.756-4.102 2.4-.777.252-1.488.716-2.111 1.38-.328.349-.818.83-1.425 1.313a2.12 2.12 0 00-.996-.248H18.67a2.138 2.138 0 00-2.135 2.135v17.637c0 1.178.958 2.136 2.135 2.136h6.614c.803 0 1.503-.446 1.868-1.102h16.877a3.242 3.242 0 003.238-3.238c0-.6-.164-1.163-.45-1.646a3.24 3.24 0 001.102-4.41 3.24 3.24 0 00.989-4.586 3.789 3.789 0 001.666-3.138zm-3.79 1.722h-.55a1.034 1.034 0 000 2.067 1.172 1.172 0 010 2.342H45.13a1.034 1.034 0 000 2.067 1.172 1.172 0 010 2.343h-1.102a1.033 1.033 0 100 2.066 1.173 1.173 0 010 2.343h-16.61v-9.99a1.033 1.033 0 10-2.066 0v11.023a.07.07 0 01-.069.07H18.67a.069.069 0 01-.068-.07V27.488c0-.038.03-.069.068-.069h6.614a.07.07 0 01.069.069v2.205a1.034 1.034 0 002.067 0v-2.205c0-.05-.004-.1-.008-.148.775-.6 1.395-1.207 1.8-1.637.381-.407.8-.687 1.242-.83 2.432-.79 4.07-2.061 5.014-2.989 1.184-1.163 1.891-2.375 1.891-3.242 0-.459.179-.888.504-1.21a1.732 1.732 0 011.234-.498c.58.005.963.301 1.183.55.377.424.563 1.035.497 1.633-.226 2.053-1.868 4.591-4.183 6.466a1.034 1.034 0 00.65 1.836h9.54c.95 0 1.723.773 1.723 1.723 0 .95-.773 1.722-1.722 1.722z" fill="url(#paint0_linear)"/><path d="M21.978 40.773c-.571 0-1.04.468-1.04 1.039 0 .57.469 1.039 1.04 1.039.57 0 1.039-.468 1.039-1.04 0-.57-.468-1.038-1.04-1.038z" fill="url(#paint1_linear)"/><path d="M64.158 33l1.775-4.698a1.03 1.03 0 00-.16-1.011l-3.14-3.92.237-5.016a1.034 1.034 0 00-.465-.912l-4.198-2.758-1.325-4.844a1.033 1.033 0 00-.724-.724l-4.844-1.325-2.757-4.197a1.035 1.035 0 00-.912-.465l-5.017.237L38.71.227a1.034 1.034 0 00-1.011-.16L33 1.842 28.302.067a1.033 1.033 0 00-1.011.16l-3.92 3.14-5.016-.237a1.031 1.031 0 00-.912.465l-2.757 4.198-4.844 1.325a1.033 1.033 0 00-.724.724l-1.325 4.844-4.198 2.757a1.03 1.03 0 00-.464.912l.236 5.017-3.14 3.919c-.228.285-.29.67-.16 1.011L1.842 33 .067 37.698a1.03 1.03 0 00.16 1.011l3.14 3.92-.237 5.016c-.017.364.16.712.465.912l4.198 2.757 1.325 4.844c.096.353.371.628.724.724l4.844 1.325 2.757 4.198c.2.305.548.48.912.465l5.017-.237 3.919 3.14c.285.228.67.29 1.011.16L33 64.158l4.698 1.775a1.035 1.035 0 001.011-.16l3.92-3.14 5.016.237c.366.016.712-.16.912-.465l2.757-4.198 4.844-1.325a1.03 1.03 0 00.724-.724l1.325-4.844 4.198-2.757c.305-.2.482-.547.465-.912l-.237-5.017 3.14-3.919c.228-.285.29-.67.16-1.011L64.158 33zm-2.071.365l1.704 4.512-3.015 3.764a1.033 1.033 0 00-.226.695l.227 4.817-4.03 2.648c-.21.138-.364.348-.43.591l-1.273 4.652-4.652 1.273a1.026 1.026 0 00-.59.43l-2.649 4.03-4.817-.227a1.034 1.034 0 00-.695.226l-3.764 3.015-4.512-1.704a1.033 1.033 0 00-.73 0l-4.512 1.704-3.764-3.015a1.035 1.035 0 00-.695-.226l-4.817.227-2.648-4.03a1.033 1.033 0 00-.591-.43l-4.652-1.273-1.273-4.652a1.034 1.034 0 00-.43-.59l-4.03-2.649.227-4.817a1.033 1.033 0 00-.226-.695L2.21 37.877l1.705-4.512a1.034 1.034 0 000-.73L2.21 28.123l3.015-3.764c.158-.196.238-.443.226-.695l-.227-4.817 4.03-2.648c.211-.138.364-.349.43-.591l1.273-4.652 4.652-1.273c.242-.066.453-.219.59-.43l2.649-4.03 4.817.227c.252.012.499-.068.695-.226l3.764-3.016 4.512 1.706c.235.088.495.088.73 0l4.512-1.706 3.764 3.016c.196.158.444.238.695.226l4.817-.227 2.648 4.03c.138.21.349.364.591.43l4.652 1.273 1.273 4.652c.066.242.219.453.43.59l4.03 2.649-.227 4.817c-.012.252.069.499.226.695l3.015 3.764-1.704 4.512a1.034 1.034 0 000 .73z" fill="#0092B5"/><path d="M52.418 15.156a26.911 26.911 0 00-1.62-1.621 1.034 1.034 0 00-1.398 1.522 25.209 25.209 0 011.495 1.496 1.03 1.03 0 001.46.063c.421-.386.45-1.04.063-1.46zm-5.29-4.441C42.145 7.54 36.145 6.129 30.234 6.74a26.444 26.444 0 00-15.924 7.587 26.308 26.308 0 00-7.707 17.584 26.299 26.299 0 006.155 18.04 1.03 1.03 0 001.456.126c.437-.367.493-1.02.125-1.456a24.238 24.238 0 01-5.67-16.627A24.246 24.246 0 0115.77 15.79a24.37 24.37 0 0114.676-6.992c5.45-.565 10.979.736 15.57 3.66a1.033 1.033 0 101.111-1.742zm8.11 7.763a1.033 1.033 0 00-1.743 1.11c2.925 4.592 4.226 10.122 3.661 15.571a24.372 24.372 0 01-6.992 14.676 24.247 24.247 0 01-16.206 7.102 24.235 24.235 0 01-16.627-5.67 1.033 1.033 0 10-1.33 1.581 26.284 26.284 0 0018.04 6.155 26.308 26.308 0 0017.584-7.707 26.443 26.443 0 007.587-15.924c.612-5.911-.799-11.91-3.974-16.894z" fill="#0092B5"/><defs><linearGradient id="paint0_linear" x1=".622" y1="31.064" x2="58.53" y2="31.064" gradientUnits="userSpaceOnUse"><stop stop-color="#FE465C"/><stop offset=".672" stop-color="#FF6C54"/></linearGradient><linearGradient id="paint1_linear" x1="19.967" y1="41.812" x2="23.502" y2="41.812" gradientUnits="userSpaceOnUse"><stop stop-color="#FE465C"/><stop offset=".672" stop-color="#FF6C54"/></linearGradient></defs></svg>