<svg width="69" height="67" fill="none" xmlns="http://www.w3.org/2000/svg"><path d="M40.464 63.515l.037-.04.014-.014c.56-.666 1.189-1.271 1.798-1.857l.047-.045.008-.008h0c.432-.408.864-.841 1.285-1.288l.007-.008h0c.892-.932 1.277-1.945 1.274-2.885-.004-.94-.395-1.927-1.282-2.817l-5.653-5.669a1.128 1.128 0 01-.021-.022c-.838-.883-1.792-1.283-2.748-1.283-.943 0-1.918.402-2.79 1.286l-.005.006-3.124 3.133a1.25 1.25 0 01-1.5.206 8.241 8.241 0 00-.402-.208l-.192-.095-.016-.008-.137-.071c-.3-.155-.647-.335-.95-.528-3.164-2.01-6.015-4.629-8.707-7.956l-.008-.008h0c-1.288-1.622-2.195-3.048-2.843-4.448a1.25 1.25 0 01.28-1.438 72.033 72.033 0 002.239-2.206l.008-.008h0l.873-.876c.924-.926 1.33-1.91 1.33-2.848s-.406-1.922-1.33-2.848l-2.806-2.815c-.164-.163-.326-.33-.483-.491l-.003-.002a64.14 64.14 0 00-.467-.476l-.018-.018a50.808 50.808 0 00-1.902-1.894c-.842-.844-1.792-1.239-2.742-1.239-.94 0-1.906.383-2.804 1.248l-3.51 3.52c-1.15 1.165-1.798 2.552-1.932 4.162l39.175 32.856zm0 0c-1.358 1.485-3.07 2.235-5.18 2.235-.168 0-.354-.01-.585-.024m5.765-2.211l-5.765 2.211m0 0c-3.324-.21-6.334-1.462-8.67-2.574-6.056-2.934-11.368-7.109-15.784-12.391-3.648-4.414-6.082-8.5-7.692-12.87L34.7 65.727zM2.553 37.891c-.675-1.837-1.492-4.463-1.264-7.231l1.264 7.23z" stroke="#0092B5" stroke-width="2.5" stroke-linejoin="round"/><path d="M37.996 33.235a1.25 1.25 0 101.646-1.881l-1.646 1.881zm-1.591-1.546l.646 1.07h.001l-.647-1.07zm-3.808 1.24l-.98-.776a1.25 1.25 0 001.115 2.018l-.135-1.242zm1.58-2.883l1.172.436v-.001l-1.172-.435zm-.359-1.816l.925-.84-.004-.005-.92.845zm17.06 4.678a1.25 1.25 0 10.308 2.481l-.308-2.48zM45.55 35.39a1.25 1.25 0 00.306-2.481l-.306 2.481zm-1.965-2.896a1.25 1.25 0 10-.593 2.428l.593-2.428zm-3.943-1.14c-.389-.34-.928-.736-1.565-.953-.675-.229-1.513-.268-2.32.22l1.295 2.139c.027-.017.063-.045.22.008.194.066.446.225.724.468l1.646-1.881zm-3.883-.734c-1.071.647-2.236.951-3.297 1.067l.27 2.485c1.324-.144 2.86-.531 4.32-1.412l-1.293-2.14zm-2.182 3.085c.756-.956 1.332-2.04 1.772-3.222l-2.343-.872c-.365.981-.823 1.827-1.39 2.543l1.961 1.551zm1.772-3.223a3.04 3.04 0 00-.606-3.092l-1.85 1.682a.54.54 0 01.112.54l2.344.87zm-.61-3.096c-2.463-2.683-3.738-5.86-3.738-9.229h-2.5c0 4.04 1.542 7.81 4.396 10.92l1.842-1.69zm-3.738-9.229c0-8.056 7.617-14.906 17.375-14.906V.75C37.583.75 28.5 8.398 28.5 18.156H31zM48.376 3.25c9.757 0 17.374 6.85 17.374 14.906h2.5C68.25 8.398 59.17.75 48.376.75v2.5zM65.75 18.156c0 7.354-6.328 13.69-14.872 14.752l.308 2.481c9.496-1.18 17.064-8.336 17.064-17.233h-2.5zM45.856 32.908a19.81 19.81 0 01-2.271-.415l-.593 2.428c.84.206 1.695.361 2.558.468l.306-2.481z" fill="url(#paint0_linear)"/><path d="M48.013 19.317c.832 0 1.506-.676 1.506-1.51s-.674-1.51-1.506-1.51c-.831 0-1.506.676-1.506 1.51s.675 1.51 1.506 1.51zm6.654 0c.832 0 1.506-.676 1.506-1.51s-.674-1.51-1.506-1.51-1.506.676-1.506 1.51.674 1.51 1.506 1.51zm-13.307 0c.831 0 1.506-.676 1.506-1.51s-.675-1.51-1.506-1.51c-.832 0-1.506.676-1.506 1.51s.674 1.51 1.506 1.51z" fill="#F4544D"/><defs><linearGradient id="paint0_linear" x1="12.338" y1="18.074" x2="75.707" y2="18.074" gradientUnits="userSpaceOnUse"><stop stop-color="#FE465C"/><stop offset=".672" stop-color="#FF6C54"/></linearGradient></defs></svg>