<svg width="35" height="25" fill="none" xmlns="http://www.w3.org/2000/svg"><mask id="a" fill="#fff"><path fill-rule="evenodd" clip-rule="evenodd" d="M11.07 3.993V3.73c.002-.964.394-1.891 1.104-2.611C12.884.4 13.8.003 14.754.001c.603-.002 1.517 0 2.574.001l1.805.002a3.953 3.953 0 012.831 1.19l11.786 11.93a4.37 4.37 0 010 6.12l-3.671 3.716a4.22 4.22 0 01-3.023 1.268 4.221 4.221 0 01-3.023-1.268L12.247 11.03a4.058 4.058 0 01-1.174-2.867l-.002-1.826v-.211l-.002-1.182.002-.518-.002-.433zm4.317 1.472a1.476 1.476 0 100-2.952 1.476 1.476 0 000 2.952z"/></mask><path d="M11.07 3.73l-1-.002 1 .001zm0 .263l-1 .005v-.006l1 .001zm1.104-2.875l-.712-.702V.415l.712.703zm2.58-1.117l-.003-1 .002 1zm2.574.001l.002-1-.002 1zm1.805.002l-.001 1v-1zm2.831 1.19l.712-.704-.712.703zm11.786 11.93l.711-.703-.711.703zm0 6.12l.712.703-.712-.703zm-3.671 3.716l.711.703-.711-.703zm-6.046 0l-.711.703.711-.703zM12.247 11.03l-.71.702.71-.702zm-1.174-2.867h1-1zm-.002-1.826l-1 .001 1-.001zm0-.211l1-.002-1 .002zm-.002-1.182l-1 .001v-.004l1 .003zm.002-.518l1-.004v.007l-1-.003zm.998-.695v.264l-2-.003v-.264l2 .003zm.817-1.91c-.536.543-.815 1.222-.816 1.91l-2-.004c.002-1.24.508-2.415 1.392-3.311l1.424 1.404zm1.87-.82c-.67.001-1.335.278-1.871.82L11.463.415C12.348-.48 13.515-.997 14.75-1l.004 2zm2.571.001a767.42 767.42 0 00-2.572-.001l-.004-2c.606-.002 1.522 0 2.579.001l-.003 2zm1.805.002l-1.805-.002.003-2 1.804.002-.002 2zm2.121.892a2.959 2.959 0 00-2.121-.892l.002-2A4.96 4.96 0 0122.675.49l-1.423 1.406zm11.786 11.93L21.253 1.897 22.676.49 34.46 12.421l-1.422 1.406zm0 4.715a3.37 3.37 0 000-4.714l1.422-1.406c2.052 2.077 2.052 5.449 0 7.526L33.04 18.54zm-3.672 3.717l3.672-3.717 1.422 1.405-3.671 3.717-1.423-1.405zm-2.311.97a3.22 3.22 0 002.311-.97l1.423 1.405a5.22 5.22 0 01-3.734 1.565v-2zm-2.312-.97c.621.628 1.44.97 2.312.97v2a5.222 5.222 0 01-3.734-1.565l1.422-1.405zM12.96 10.327l11.785 11.93-1.422 1.406-11.786-11.93 1.423-1.406zm-.886-2.165c0 .822.316 1.587.886 2.165l-1.423 1.405a5.058 5.058 0 01-1.463-3.568l2-.002zm-.002-1.827l.002 1.827-2 .002-.002-1.826 2-.003zm0-.21v.21l-2 .003v-.21l2-.004zm-.002-1.181l.002 1.18-2 .003-.002-1.182 2-.001zm.002-.515l-.002.519-2-.007.002-.518 2 .006zm-.002-.44l.002.433-2 .008-.002-.432 2-.009zm5.794 0a2.476 2.476 0 01-2.476 2.476v-2a.476.476 0 00.476-.476h2zm-2.476-2.475a2.476 2.476 0 012.476 2.475h-2a.476.476 0 00-.476-.475v-2zM12.91 3.989a2.476 2.476 0 012.476-2.475v2a.476.476 0 00-.476.475h-2zm2.476 2.476a2.476 2.476 0 01-2.476-2.476h2c0 .262.212.476.476.476v2z" fill="url(#paint0_linear)" mask="url(#a)"/><path d="M23.166 11.695l.426.43.69.7h-.6l-.399-.398-.434-.435-.584.192a1.594 1.594 0 01-1.656-.39h0a1.677 1.677 0 01-.249-.321 1.72 1.72 0 001.957-.348m.85.57l-.85-.57m.85.57l.184-.577a1.713 1.713 0 00-.406-1.723 1.659 1.659 0 00-.293-.236 1.742 1.742 0 01-.335 1.966m.85.57l-.85-.57m2.555 2.297l-.064-.064v.072l.064-.008zm.529.535l.03.322.318.03-.348-.352zm.966.978l-.093-.094-.047.413h.14v-.319zm-.946.728l.337.039-.337-.039zm-.615-1.443h0s0 0 0 0h0z" fill="url(#paint1_linear)" stroke="url(#paint2_linear)" stroke-width="2"/><path d="M17.536 21.93c-4.429 1.686-11.81 1.476-14.974-6.111C.365 10.55 4.655.824 14.567 3.563" stroke="#FF6756" stroke-width="2.5" stroke-linecap="round"/><defs><linearGradient id="paint0_linear" x1="46.187" y1="12.114" x2="5.476" y2="12.114" gradientUnits="userSpaceOnUse"><stop stop-color="#FE465C"/><stop offset=".672" stop-color="#FF6C54"/></linearGradient><linearGradient id="paint1_linear" x1="31.222" y1="12.08" x2="17.193" y2="12.08" gradientUnits="userSpaceOnUse"><stop stop-color="#FE465C"/><stop offset=".672" stop-color="#FF6C54"/></linearGradient><linearGradient id="paint2_linear" x1="31.222" y1="12.08" x2="17.193" y2="12.08" gradientUnits="userSpaceOnUse"><stop stop-color="#FE465C"/><stop offset=".672" stop-color="#FF6C54"/></linearGradient></defs></svg>